<svg xmlns="http://www.w3.org/2000/svg" width="430" height="430" style="width:100%;height:100%;transform:translate3d(0,0,0);content-visibility:visible" viewBox="0 0 430 430"><defs><clipPath id="c"><path d="M0 0h430v430H0z"/></clipPath><clipPath id="e"><path d="M0 0h430v430H0z"/></clipPath><clipPath id="d"><path d="M0 0h430v430H0z"/></clipPath><filter id="a" width="100%" height="100%" x="0%" y="0%" filterUnits="objectBoundingBox"><feComponentTransfer in="SourceGraphic"><feFuncA tableValues="1.0 0.0" type="table"/></feComponentTransfer></filter><mask id="f" mask-type="alpha"><g filter="url(#a)"><path fill="#fff" d="M0 0h430v430H0z" opacity="0"/><use xmlns:ns1="http://www.w3.org/1999/xlink" ns1:href="#b"/></g></mask><g id="b" style="display:none"><path/><path fill-opacity="0"/></g></defs><g clip-path="url(#c)"><g clip-path="url(#d)" style="display:block"><g style="display:block"><path fill="none" stroke="#2CA58D" stroke-linecap="round" stroke-width="7" d="m203.847 125.282 21.028 42.222" class="primary"/><path fill="#2CA58D" d="M159.552 117.108c12.537 12.537 30.343 16.594 46.29 12.17 4.3-15.875.218-33.546-12.246-46.01-12.537-12.537-30.343-16.594-46.29-12.17-4.3 15.875-.218 33.546 12.246 46.01" class="primary"/><path fill="#2CA58D" d="M-76.1-3.732c12.537 12.537 30.343 16.594 46.29 12.17-6.092-6.029-49.593-49.279-58.536-58.18-4.3 15.875-.218 33.546 12.246 46.01" class="primary" opacity=".5" style="mix-blend-mode:multiply" transform="translate(235.652 120.84)"/><path fill="none" stroke="#2CA58D" stroke-linecap="round" stroke-width="7" d="m224.875 167.504 23.63-45.194" class="primary"/><path fill="#2CA58D" d="M307.273 110.238c-16.59 16.59-40.157 21.949-61.255 16.077-5.871-21.098-.512-44.665 16.077-61.254 16.59-16.59 40.157-21.949 61.255-16.077 5.871 21.098.512 44.665-16.077 61.254" class="primary"/><path fill="#2CA58D" d="M10.366 5.475C4.495-15.623 9.854-39.19 26.443-55.779c16.59-16.59 40.157-21.949 61.255-16.077-12.35 12.265-62.1 61.265-77.332 77.331" class="primary" opacity=".5" style="mix-blend-mode:multiply" transform="translate(235.652 120.84)"/><path fill="none" stroke="#2CA58D" stroke-linecap="round" stroke-width="7" d="m224.887 194.999-.012-27.495" class="primary"/></g><path fill="#3A3347" d="M0-39.436c-22.467 0-41.788 13.471-50.326 32.777A39.9 39.9 0 0 0-65-9.436c-22.091 0-40 17.909-40 40 0 2.01 26 55.5 119.5 55 96.965-.519 90.5-51.951 90.5-55 0-22.091-17.909-40-40-40-5.18 0-10.131.984-14.674 2.777C41.788-25.965 22.467-39.436 0-39.436" class="quaternary" style="display:block" transform="translate(225 234.435)"/><g opacity=".5" style="mix-blend-mode:multiply;display:block"><path fill="#3A3347" d="M120 264.996c0-22.091 17.909-40 40-40 5.18 0 10.131.984 14.674 2.777 8.538-19.306 27.859-32.777 50.326-32.777 16.906 0 32.029 7.627 42.118 19.628A54.8 54.8 0 0 0 245 209.996c-22.467 0-41.788 13.471-50.326 32.777A39.9 39.9 0 0 0 180 239.996c-22.091 0-40 17.909-40 40 0 1.245.057 17.826.168 30.724l-19.734.192c-.286-1.931-.434-43.906-.434-45.916" class="quaternary" opacity="1"/></g><g fill="#F9C9C0" style="display:block"><path d="m357.574 253.149-33.897 19.571-40.963 23.65s5.043-4.88 5.107-13.508-6.338-21.745-21.721-21.805-116.578.006-123.462.131-8.66.811-13.466 2.262c-4.281 1.293-49.039 17.351-49.039 17.351L85 370.134l45.249-17.403h127.907a50 50 0 0 0 25-6.699l50.779-29.317 45.254-26.127c10.338-5.969 13.88-19.189 7.911-29.527s-19.188-13.881-29.526-7.912" class="secondary"/><g opacity=".5" style="mix-blend-mode:multiply"><path d="M85 370.077v-15l45.249-17.404h127.907c8.777 0 17.399-2.31 25-6.698l96.033-55.444a21.53 21.53 0 0 0 9.467-11.224c3.605 9.703-.203 20.875-9.467 26.224l-96.033 55.444a50 50 0 0 1-25 6.698H130.249z" class="secondary" opacity="1"/><path d="M192.407 296.749a7.5 7.5 0 0 1 7.5-7.5h66.071c9.301 0 17.229-5.873 20.278-14.114a21.6 21.6 0 0 1 1.337 7.5c0 11.938-9.677 21.614-21.615 21.614h-66.071a7.5 7.5 0 0 1-7.5-7.5" class="secondary" opacity="1"/></g></g><g fill="#B26836" style="display:block"><path d="M85 268c0-1.656-1.344-3-3-3H48c-1.656 0-3 1.344-3 3v114c0 1.656 1.344 3 3 3h34c1.656 0 3-1.344 3-3z" class="tertiary"/><path d="M85 322.335H45v59.125a3 3 0 0 0 3 3h34a3 3 0 0 0 3-3zm-40 0h40V267.96a3 3 0 0 0-3-3H48a3 3 0 0 0-3 3z" class="tertiary"/><path d="M20-15h-40v27a3 3 0 0 0 3 3h34a3 3 0 0 0 3-3z" class="tertiary" opacity=".5" style="mix-blend-mode:multiply" transform="translate(65 369.46)"/></g></g><g clip-path="url(#e)" style="display:none"><g style="display:none"><path fill="none" class="primary"/><path class="primary"/><path fill="none" class="primary"/><path class="primary"/><path fill="none" class="primary"/><path class="primary" style="mix-blend-mode:multiply"/><path class="primary" style="mix-blend-mode:multiply"/></g><path class="quaternary" style="display:none"/><path class="quaternary" style="mix-blend-mode:multiply;display:none"/><g mask="url(#f)" style="display:none"><path class="secondary"/><g style="mix-blend-mode:multiply"><path class="secondary"/><path class="secondary"/></g></g><g style="display:none"><path class="tertiary"/><path class="tertiary" style="mix-blend-mode:multiply"/></g></g></g></svg>